<?xml version="1.0" encoding="UTF-8"?>
<svg version="1.1" xmlns="http://www.w3.org/2000/svg" width="65" height="65">
<path d="M0 0 C0.66 0.66 1.32 1.32 2 2 C2.78503906 2.60714844 2.78503906 2.60714844 3.5859375 3.2265625 C9.69302105 8.0002217 12.82808564 13.31622191 14 21 C14.89676113 36.55535659 14.89676113 36.55535659 11 43 C10.34 43.66 9.68 44.32 9 45 C8.071875 46.5159375 8.071875 46.5159375 7.125 48.0625 C4.87630353 51.17099217 4.52087081 51.4131882 1 52 C0.34 52.99 -0.32 53.98 -1 55 C-9.48943434 57.73388563 -20.88992658 59.10350517 -29.3125 55.625 C-32 54 -32 54 -34 52 C-34.99 51.34 -35.98 50.68 -37 50 C-38.90511548 48.09488452 -40.40659382 46.16703241 -42 44 C-42.53625 43.401875 -43.0725 42.80375 -43.625 42.1875 C-46.73045158 37.24700885 -46.20663211 30.63495598 -46.25 24.9375 C-46.270625 24.25623047 -46.29125 23.57496094 -46.3125 22.87304688 C-46.34879582 18.15005355 -45.45864857 15.0161905 -43 11 C-42.34 10.34 -41.68 9.68 -41 9 C-40.566875 8.175 -40.13375 7.35 -39.6875 6.5 C-37.67041751 3.51172964 -36.31256338 3.21191343 -33 2 C-31.64691687 0.68671343 -30.31129922 -0.64499081 -29 -2 C-20.34939049 -4.8835365 -8.2053324 -3.83854606 0 0 Z " fill="#9D201E" transform="translate(49,6)"/>
<path d="M0 0 C1.25554688 -0.00128906 2.51109375 -0.00257812 3.8046875 -0.00390625 C4.46178711 -0.00181152 5.11888672 0.0002832 5.79589844 0.00244141 C7.80411335 0.00779016 9.81210459 0.00249559 11.8203125 -0.00390625 C13.07585938 -0.00261719 14.33140625 -0.00132813 15.625 0 C16.78644531 0.00112793 17.94789062 0.00225586 19.14453125 0.00341797 C21.8125 0.1328125 21.8125 0.1328125 22.8125 1.1328125 C23.15081995 5.72925308 23.13759341 10.33802654 23.1875 14.9453125 C23.22488281 16.24275391 23.26226562 17.54019531 23.30078125 18.87695312 C23.31238281 20.12283203 23.32398437 21.36871094 23.3359375 22.65234375 C23.35575684 23.79807861 23.37557617 24.94381348 23.39599609 26.12426758 C22.8125 29.1328125 22.8125 29.1328125 20.41650391 31.4597168 C14.65257232 35.16309418 9.60788846 35.99899252 2.8125 35.1328125 C-1.09771147 33.75807812 -4.25350569 32.06680681 -7.1875 29.1328125 C-7.43041992 26.35131836 -7.43041992 26.35131836 -7.41796875 22.84765625 C-7.41603516 21.59533203 -7.41410156 20.34300781 -7.41210938 19.05273438 C-7.39986328 17.73853516 -7.38761719 16.42433594 -7.375 15.0703125 C-7.37435547 13.75224609 -7.37371094 12.43417969 -7.37304688 11.07617188 C-7.32172202 0.00711044 -7.32172202 0.00711044 0 0 Z " fill="#9EA699" transform="translate(25.1875,18.8671875)"/>
<path d="M0 0 C0.66 0.33 1.32 0.66 2 1 C4.03486344 8.01767007 4.49593607 18.45415272 1.625 25.3125 C-0 28 -0 28 -2 30 C-2.61875 31.010625 -3.2375 32.02125 -3.875 33.0625 C-6.12369647 36.17099217 -6.47912919 36.4131882 -10 37 C-10.66 37.99 -11.32 38.98 -12 40 C-20.48943434 42.73388563 -31.88992658 44.10350517 -40.3125 40.625 C-43 39 -43 39 -45 37 C-45.99 36.34 -46.98 35.68 -48 35 C-49.90511548 33.09488452 -51.40659382 31.16703241 -53 29 C-53.53625 28.401875 -54.0725 27.80375 -54.625 27.1875 C-58.38022279 21.21328193 -57.10007149 12.77150413 -57 6 C-55 8 -55 8 -54.5 10.0625 C-54.335 10.701875 -54.17 11.34125 -54 12 C-53.34 12.33 -52.68 12.66 -52 13 C-51.67 12.34 -51.34 11.68 -51 11 C-51 11.99 -51 12.98 -51 14 C-51.99 14.66 -52.98 15.32 -54 16 C-52.68 16.33 -51.36 16.66 -50 17 C-50.33 17.66 -50.66 18.32 -51 19 C-51.99 19 -52.98 19 -54 19 C-54.33 19.66 -54.66 20.32 -55 21 C-53.35 21.33 -51.7 21.66 -50 22 C-50 22.66 -50 23.32 -50 24 C-49.34 24 -48.68 24 -48 24 C-47.67 25.98 -47.34 27.96 -47 30 C-46.01 30.33 -45.02 30.66 -44 31 C-44.61277612 28.03824877 -45.25372522 26.61941217 -47 24 C-46.625 21.8125 -46.625 21.8125 -46 20 C-43 24.75 -43 24.75 -43 27 C-41.67741528 27.68774405 -40.34013497 28.34711373 -39 29 C-37.96875 29.53625 -36.9375 30.0725 -35.875 30.625 C-30.65516724 32.80458756 -25.16101004 32.97473654 -19.7578125 31.30859375 C-13.93176917 28.68137798 -10.45694258 25.0526416 -7.6875 19.25 C-6.54231268 13.83638721 -6.23861543 8.2841537 -8 3 C-7.05125 3.061875 -6.1025 3.12375 -5.125 3.1875 C-3.578125 3.0946875 -3.578125 3.0946875 -2 3 C-1.34 2.01 -0.68 1.02 0 0 Z " fill="#993A19" transform="translate(60,21)"/>
<path d="M0 0 C4.62 0 9.24 0 14 0 C14 1.98 14 3.96 14 6 C15.32 6 16.64 6 18 6 C18.33 8.31 18.66 10.62 19 13 C21.97 13 24.94 13 28 13 C28 17.62 28 22.24 28 27 C21.4 27 14.8 27 8 27 C8.99 25.68 9.98 24.36 11 23 C10.67 23.33 10.34 23.66 10 24 C9.34 24.33 8.68 24.66 8 25 C8.165 24.195625 8.33 23.39125 8.5 22.5625 C9.03191839 20.2715557 9.03191839 20.2715557 9 19 C9 17 9 15 9 13 C6.03 13 3.06 13 0 13 C0 8.71 0 4.42 0 0 Z " fill="#82482B" transform="translate(19,20)"/>
<path d="M0 0 C6.29277044 2.82507806 11.08826568 7.96711043 13.71484375 14.34765625 C14.57753109 20.93545046 13.58081834 26.40341265 10.71484375 32.34765625 C9.72484375 33.00765625 8.73484375 33.66765625 7.71484375 34.34765625 C7.38484375 25.43765625 7.05484375 16.52765625 6.71484375 7.34765625 C-2.52515625 7.34765625 -11.76515625 7.34765625 -21.28515625 7.34765625 C-21.61515625 16.58765625 -21.94515625 25.82765625 -22.28515625 35.34765625 C-27.37202504 28.98907026 -28.82540047 25.12441997 -28.6640625 17.1328125 C-27.87009118 11.29671403 -24.55630976 7.26598146 -20.22265625 3.47265625 C-13.87198938 -1.12144319 -7.69119098 -2.19560495 0 0 Z " fill="#126431" transform="translate(40.28515625,12.65234375)"/>
<path d="M0 0 C0.99 0.66 1.98 1.32 3 2 C2.34 3.32 1.68 4.64 1 6 C-0.32 6 -1.64 6 -3 6 C-3 6.99 -3 7.98 -3 9 C-3.99 8.67 -4.98 8.34 -6 8 C-6.33 8.66 -6.66 9.32 -7 10 C-6.01 10.33 -5.02 10.66 -4 11 C-3.67 10.67 -3.34 10.34 -3 10 C-2.01 10 -1.02 10 0 10 C0.33 9.01 0.66 8.02 1 7 C1.33 8.32 1.66 9.64 2 11 C1.0925 11.556875 0.185 12.11375 -0.75 12.6875 C-5.03981897 15.73987119 -7.96819542 19.13943301 -10 24 C-10.71005603 30.63067028 -10.24863034 37.68440245 -8 44 C-7.34 44.66 -6.68 45.32 -6 46 C-6.375 48.125 -6.375 48.125 -7 50 C-8.9375 49.25 -8.9375 49.25 -11 48 C-11.8125 46 -11.8125 46 -12 44 C-11.67 43.34 -11.34 42.68 -11 42 C-11.66 42 -12.32 42 -13 42 C-13 41.34 -13 40.68 -13 40 C-14.65 39.67 -16.3 39.34 -18 39 C-17.67 38.01 -17.34 37.02 -17 36 C-14.9375 35.3125 -14.9375 35.3125 -13 35 C-14.65 34.67 -16.3 34.34 -18 34 C-17.67 33.34 -17.34 32.68 -17 32 C-16.01 32 -15.02 32 -14 32 C-14.63035156 31.76796875 -15.26070312 31.5359375 -15.91015625 31.296875 C-18 30 -18 30 -18.93359375 27.828125 C-19.79155635 23.43854892 -20.28457334 20.79680535 -18.75 16.5 C-17 14 -17 14 -15 12 C-14.566875 11.175 -14.13375 10.35 -13.6875 9.5 C-11.67041751 6.51172964 -10.31256338 6.21191343 -7 5 C-5.64691687 3.68671343 -4.31129922 2.35500919 -3 1 C-2.01 0.67 -1.02 0.34 0 0 Z " fill="#9B231E" transform="translate(23,3)"/>
<path d="M0 0 C4.62 0 9.24 0 14 0 C13.67 1.98 13.34 3.96 13 6 C12.01 6 11.02 6 10 6 C10.33 7.98 10.66 9.96 11 12 C11.33 11.67 11.66 11.34 12 11 C13.98 11.66 15.96 12.32 18 13 C18 14.32 18 15.64 18 17 C17.34 17 16.68 17 16 17 C16.33 18.65 16.66 20.3 17 22 C15.68 21.67 14.36 21.34 13 21 C13 21.66 13 22.32 13 23 C13.99 23.33 14.98 23.66 16 24 C14.34385343 24.38218767 12.67542976 24.71395102 11 25 C10.67 24.67 10.34 24.34 10 24 C9.34 24.33 8.68 24.66 8 25 C8.165 24.195625 8.33 23.39125 8.5 22.5625 C9.03191839 20.2715557 9.03191839 20.2715557 9 19 C9 17 9 15 9 13 C6.03 13 3.06 13 0 13 C0 8.71 0 4.42 0 0 Z " fill="#51150F" transform="translate(19,20)"/>
<path d="M0 0 C3.96930989 -0.02465881 7.93859034 -0.04284023 11.90795898 -0.05493164 C13.25920386 -0.05997057 14.61044326 -0.06680177 15.96166992 -0.07543945 C17.90020434 -0.08752419 19.838778 -0.09269828 21.77734375 -0.09765625 C23.52905884 -0.10551147 23.52905884 -0.10551147 25.31616211 -0.11352539 C28 0 28 0 29 1 C29.08767112 3.07262076 29.10695873 5.14820294 29.09765625 7.22265625 C29.09443359 8.48271484 29.09121094 9.74277344 29.08789062 11.04101562 C29.07953403 12.38151109 29.07106907 13.72200588 29.0625 15.0625 C29.0574866 16.40689942 29.05292342 17.7513006 29.04882812 19.09570312 C29.03699488 22.39717941 29.02050971 25.69856803 29 29 C28.67 29 28.34 29 28 29 C28 24.05 28 19.1 28 14 C25.03 14 22.06 14 19 14 C18.67 11.69 18.34 9.38 18 7 C16.68 7 15.36 7 14 7 C14 5.02 14 3.04 14 1 C9.38 1 4.76 1 0 1 C0 0.67 0 0.34 0 0 Z " fill="#9AA1A1" transform="translate(19,19)"/>
<path d="M0 0 C2 2 2 2 2.5 4.0625 C2.665 4.701875 2.83 5.34125 3 6 C3.66 6.33 4.32 6.66 5 7 C5.33 6.34 5.66 5.68 6 5 C6 5.99 6 6.98 6 8 C5.01 8.66 4.02 9.32 3 10 C4.32 10.33 5.64 10.66 7 11 C6.67 11.66 6.34 12.32 6 13 C5.01 13 4.02 13 3 13 C2.67 13.66 2.34 14.32 2 15 C3.65 15.33 5.3 15.66 7 16 C7 16.66 7 17.32 7 18 C7.66 18 8.32 18 9 18 C9.33 19.98 9.66 21.96 10 24 C10.99 24.33 11.98 24.66 13 25 C12.38722388 22.03824877 11.74627478 20.61941217 10 18 C10.375 15.8125 10.375 15.8125 11 14 C14 18.75 14 18.75 14 21 C14.5775 21.268125 15.155 21.53625 15.75 21.8125 C18.0325868 23.01719859 19.9737942 24.40798115 22 26 C20.35 26.33 18.7 26.66 17 27 C17.33 27.5775 17.66 28.155 18 28.75 C19 31 19 31 19 35 C16.08482708 33.92598892 14.22189824 33.22189824 12 31 C11.01 30.34 10.02 29.68 9 29 C7.09488452 27.09488452 5.59340618 25.16703241 4 23 C3.46375 22.401875 2.9275 21.80375 2.375 21.1875 C-1.38022279 15.21328193 -0.10007149 6.77150413 0 0 Z " fill="#761217" transform="translate(3,27)"/>
<path d="M0 0 C0.66 0.33 1.32 0.66 2 1 C3.23118554 5.16109543 3.13350412 9.31341272 3.125 13.625 C3.12757812 14.93726563 3.13015625 16.24953125 3.1328125 17.6015625 C3 21 3 21 2 24 C1.34 24 0.68 24 0 24 C-0.33 21.69 -0.66 19.38 -1 17 C-1.99 17.66 -2.98 18.32 -4 19 C-3.67 19.99 -3.34 20.98 -3 22 C-4.65 21.67 -6.3 21.34 -8 21 C-7.835 20.38125 -7.67 19.7625 -7.5 19.125 C-6.64329508 13.77059425 -6.27375999 8.17872003 -8 3 C-6.576875 3.0928125 -6.576875 3.0928125 -5.125 3.1875 C-3.578125 3.0946875 -3.578125 3.0946875 -2 3 C-1.34 2.01 -0.68 1.02 0 0 Z " fill="#99351A" transform="translate(60,21)"/>
<path d="M0 0 C2.48828125 1.1171875 2.48828125 1.1171875 5 3 C5.41796875 5.8203125 5.41796875 5.8203125 5.1875 9.125 C4.96220456 14.88612616 5.36867292 19.47161379 7 25 C7.66 25.66 8.32 26.32 9 27 C8.625 29.125 8.625 29.125 8 31 C6.0625 30.25 6.0625 30.25 4 29 C3.1875 27 3.1875 27 3 25 C3.33 24.34 3.66 23.68 4 23 C3.34 23 2.68 23 2 23 C2 22.34 2 21.68 2 21 C0.35 20.67 -1.3 20.34 -3 20 C-2.67 19.01 -2.34 18.02 -2 17 C0.0625 16.3125 0.0625 16.3125 2 16 C0.35 15.67 -1.3 15.34 -3 15 C-2.67 14.34 -2.34 13.68 -2 13 C-1.01 13 -0.02 13 1 13 C0.360625 12.814375 -0.27875 12.62875 -0.9375 12.4375 C-3 11 -3 11 -3.875 7.5 C-3.91625 6.345 -3.9575 5.19 -4 4 C-2.66666667 2.66666667 -1.33333333 1.33333333 0 0 Z " fill="#A53D1B" transform="translate(8,22)"/>
<path d="M0 0 C1.0528418 0.07831055 1.0528418 0.07831055 2.12695312 0.15820312 C3.85588054 0.28757865 5.58425355 0.42432531 7.3125 0.5625 C7.3125 3.2025 7.3125 5.8425 7.3125 8.5625 C2.6925 8.8925 -1.9275 9.2225 -6.6875 9.5625 C-7.6775 7.9125 -8.6675 6.2625 -9.6875 4.5625 C-10.3475 3.9025 -11.0075 3.2425 -11.6875 2.5625 C-9.46277113 -1.88695775 -4.2264806 -0.34332756 0 0 Z " fill="#9F3719" transform="translate(30.6875,53.4375)"/>
<path d="M0 0 C7.76343271 -0.36015925 14.77840795 -0.13606985 22 3 C22.66 3.66 23.32 4.32 24 5 C24.80244141 5.64195313 24.80244141 5.64195313 25.62109375 6.296875 C29.60943025 9.4875442 32.03817473 12.15313758 34 17 C29.375 20 29.375 20 26 20 C26.185625 19.236875 26.37125 18.47375 26.5625 17.6875 C27.22819173 14.91032625 27.22819173 14.91032625 26 12 C24.35 12 22.7 12 21 12 C21.66 11.01 22.32 10.02 23 9 C21.73760288 8.13341385 20.46472499 7.28207941 19.1875 6.4375 C18.47980469 5.96183594 17.77210937 5.48617188 17.04296875 4.99609375 C14.88563573 3.64922909 14.88563573 3.64922909 12 5 C11.67 5.66 11.34 6.32 11 7 C10.34 6.67 9.68 6.34 9 6 C9.33 4.35 9.66 2.7 10 1 C6.7 1 3.4 1 0 1 C0 0.67 0 0.34 0 0 Z " fill="#671014" transform="translate(27,3)"/>
<path d="M0 0 C9.24 0 18.48 0 28 0 C23.27431806 4.72568194 20.71265135 6.07522276 14.1875 6.375 C9.12677944 6.28408885 5.12528313 4.95124694 1 2 C0.67 1.34 0.34 0.68 0 0 Z " fill="#1AA2D3" transform="translate(19,48)"/>
<path d="M0 0 C4.40552553 4.40552553 6.28308382 6.59221387 6.3125 12.75 C6.20808825 17.79159609 5.18870639 21.46046082 3 26 C2.01 26.66 1.02 27.32 0 28 C0 18.76 0 9.52 0 0 Z " fill="#126431" transform="translate(48,19)"/>
<path d="M0 0 C4.10839064 1.45002023 7.50344613 3.3979134 11 6 C11 6.66 11 7.32 11 8 C11.99 8.33 12.98 8.66 14 9 C15.1875 11.5625 15.1875 11.5625 16 14 C15.01 14.99 14.02 15.98 13 17 C15.31 16.34 17.62 15.68 20 15 C19.34 16.32 18.68 17.64 18 19 C12.32934968 17.97928294 10.05668331 16.40145388 6.5546875 11.88671875 C4.0577154 8.85647371 1.04527422 6.45964456 -2 4 C-1.34 2.68 -0.68 1.36 0 0 Z " fill="#931B1B" transform="translate(40,6)"/>
<path d="M0 0 C2.50583934 1.23358992 4.96660387 2.51893038 7.41015625 3.87109375 C7.41015625 4.20109375 7.41015625 4.53109375 7.41015625 4.87109375 C-1.16984375 4.87109375 -9.74984375 4.87109375 -18.58984375 4.87109375 C-15.54283406 -1.22292562 -5.60829476 -2.44464131 0 0 Z " fill="#4D5125" transform="translate(38.58984375,14.12890625)"/>
<path d="M0 0 C1.98 0 3.96 0 6 0 C5.01 0.495 5.01 0.495 4 1 C4.66 1.99 5.32 2.98 6 4 C6.07905064 6.33199388 6.08798769 8.66832622 6 11 C6.66 11 7.32 11 8 11 C8 10.01 8 9.02 8 8 C9.5 6.3125 9.5 6.3125 11 5 C10.01 5 9.02 5 8 5 C8 3.35 8 1.7 8 0 C9.65 0 11.3 0 13 0 C13 3.96 13 7.92 13 12 C10.36 12 7.72 12 5 12 C4.67 9.69 4.34 7.38 4 5 C2.68 5 1.36 5 0 5 C0 3.35 0 1.7 0 0 Z " fill="#F0F1F1" transform="translate(33,21)"/>
<path d="M0 0 C0.33 0 0.66 0 1 0 C1 1.65 1 3.3 1 5 C2.32 5 3.64 5 5 5 C5.33 7.31 5.66 9.62 6 12 C8.97 12 11.94 12 15 12 C15 16.62 15 21.24 15 26 C14.67 26 14.34 26 14 26 C14 21.71 14 17.42 14 13 C11.36 13 8.72 13 6 13 C5.67 14.32 5.34 15.64 5 17 C4.54625 16.195625 4.0925 15.39125 3.625 14.5625 C2.25274335 11.91143428 2.25274335 11.91143428 0 11 C-0.99 11.99 -1.98 12.98 -3 14 C-3 11.03 -3 8.06 -3 5 C-2.01 5 -1.02 5 0 5 C0 3.35 0 1.7 0 0 Z " fill="#8E7478" transform="translate(32,21)"/>
<path d="M0 0 C0 3 0 3 -1.5 4.6875 C-2.2425 5.3371875 -2.2425 5.3371875 -3 6 C-0.69 6.66 1.62 7.32 4 8 C3.67 8.99 3.34 9.98 3 11 C-4.0157365 13.1852294 -10.69845409 13.22238211 -18 13 C-18 12.67 -18 12.34 -18 12 C-17.37351562 11.93941406 -16.74703125 11.87882812 -16.1015625 11.81640625 C-15.28429687 11.73261719 -14.46703125 11.64882813 -13.625 11.5625 C-12.81289063 11.48128906 -12.00078125 11.40007813 -11.1640625 11.31640625 C-8.95727195 11.10909886 -8.95727195 11.10909886 -7 10 C-7.185625 9.401875 -7.37125 8.80375 -7.5625 8.1875 C-8 6 -8 6 -7 3 C-3.4375 1.3125 -3.4375 1.3125 0 0 Z " fill="#6D1114" transform="translate(45,50)"/>
<path d="M0 0 C0.33 1.32 0.66 2.64 1 4 C1.33 3.67 1.66 3.34 2 3 C3.98 3.66 5.96 4.32 8 5 C8 6.32 8 7.64 8 9 C7.34 9 6.68 9 6 9 C6.33 10.65 6.66 12.3 7 14 C5.68 13.67 4.36 13.34 3 13 C3 13.66 3 14.32 3 15 C3.99 15.33 4.98 15.66 6 16 C4.34385343 16.38218767 2.67542976 16.71395102 1 17 C0.67 16.67 0.34 16.34 0 16 C-0.66 16.33 -1.32 16.66 -2 17 C-1.835 16.195625 -1.67 15.39125 -1.5 14.5625 C-1.0471167 12.24147308 -0.99887197 11.07219396 -1.03515625 8.75 C-1.04417969 7.8425 -1.05320312 6.935 -1.0625 6 C-1.07990234 4.63875 -1.07990234 4.63875 -1.09765625 3.25 C-1 1 -1 1 0 0 Z " fill="#533928" transform="translate(29,28)"/>
<path d="M0 0 C0.66 0.33 1.32 0.66 2 1 C3.08179761 4.776086 3.10543987 8.40497142 3.0625 12.3125 C3.05347656 13.38113281 3.04445313 14.44976562 3.03515625 15.55078125 C3.02355469 16.35902344 3.01195312 17.16726562 3 18 C2.67 18 2.34 18 2 18 C1.87625 16.88625 1.7525 15.7725 1.625 14.625 C1.3534187 10.96896323 1.3534187 10.96896323 -1 9 C-1.625 6.875 -1.625 6.875 -2 5 C-2 5.99 -2 6.98 -2 8 C-2.99 8.495 -2.99 8.495 -4 9 C-4.65555119 11.52733235 -4.65555119 11.52733235 -5 14 C-5.33 14 -5.66 14 -6 14 C-6.66 10.37 -7.32 6.74 -8 3 C-6.576875 3.0928125 -6.576875 3.0928125 -5.125 3.1875 C-3.578125 3.0946875 -3.578125 3.0946875 -2 3 C-1.34 2.01 -0.68 1.02 0 0 Z " fill="#6E1215" transform="translate(60,21)"/>
<path d="M0 0 C2 2 2 2 2.5 4.0625 C2.665 4.701875 2.83 5.34125 3 6 C3.66 6.33 4.32 6.66 5 7 C5.33 6.34 5.66 5.68 6 5 C6 5.99 6 6.98 6 8 C5.01 8.66 4.02 9.32 3 10 C4.32 10.33 5.64 10.66 7 11 C6.67 11.66 6.34 12.32 6 13 C5.01 13 4.02 13 3 13 C2.67 13.66 2.34 14.32 2 15 C3.65 15.33 5.3 15.66 7 16 C6.01 16.33 5.02 16.66 4 17 C3.26676204 19.01508358 3.26676204 19.01508358 3 21 C0.21554556 15.987982 -0.12483509 11.35999344 -0.0625 5.6875 C-0.05347656 4.61886719 -0.04445312 3.55023437 -0.03515625 2.44921875 C-0.02355469 1.64097656 -0.01195312 0.83273438 0 0 Z " fill="#731217" transform="translate(3,27)"/>
<path d="M0 0 C3.95914413 1.83843256 5.83902793 3.13297939 7.57421875 7.2421875 C6.71699219 6.79746094 5.85976563 6.35273438 4.9765625 5.89453125 C3.83316406 5.32863281 2.68976562 4.76273438 1.51171875 4.1796875 C0.38636719 3.61121094 -0.73898438 3.04273438 -1.8984375 2.45703125 C-6.69085459 0.80648672 -10.16034725 1.2761016 -14.7890625 3.25 C-15.43230469 3.61867188 -16.07554688 3.98734375 -16.73828125 4.3671875 C-18.7265625 5.5 -18.7265625 5.5 -20.42578125 6.2421875 C-21.08578125 5.9121875 -21.74578125 5.5821875 -22.42578125 5.2421875 C-15.44215592 -0.57750028 -9.06271505 -2.83118634 0 0 Z " fill="#0C4825" transform="translate(40.42578125,12.7578125)"/>
<path d="M0 0 C0.99 0.66 1.98 1.32 3 2 C2.34 3.32 1.68 4.64 1 6 C-0.32 6 -1.64 6 -3 6 C-3 6.99 -3 7.98 -3 9 C-3.99 8.67 -4.98 8.34 -6 8 C-6.66 8.66 -7.32 9.32 -8 10 C-8 9.34 -8 8.68 -8 8 C-9.65 9.32 -11.3 10.64 -13 12 C-13.66 11.67 -14.32 11.34 -15 11 C-12.4698042 7.47579871 -11.19234406 5.91707526 -7 5 C-5.64631404 3.68733482 -4.31200404 2.35432675 -3 1 C-2.01 0.67 -1.02 0.34 0 0 Z " fill="#640D14" transform="translate(23,3)"/>
<path d="M0 0 C-3.99153722 3.16570193 -6.92233423 4.14971975 -12 4.1875 C-13.299375 4.20876953 -13.299375 4.20876953 -14.625 4.23046875 C-17 4 -17 4 -20 2 C-19.01 2 -18.02 2 -17 2 C-17 1.34 -17 0.68 -17 0 C-15.68 0.33 -14.36 0.66 -13 1 C-13 0.67 -13 0.34 -13 0 C-8.38926889 -1.29676812 -4.66159911 -0.71109139 0 0 Z " fill="#1094C4" transform="translate(45,50)"/>
<path d="M0 0 C2.31 0 4.62 0 7 0 C6.67 4.29 6.34 8.58 6 13 C4.68 13.33 3.36 13.66 2 14 C1.34 13.34 0.68 12.68 0 12 C1.32 11.67 2.64 11.34 4 11 C3.814375 10.2575 3.62875 9.515 3.4375 8.75 C3.00796892 6.05009037 3.14877026 4.55368923 4 2 C2.68 2.33 1.36 2.66 0 3 C0 2.01 0 1.02 0 0 Z " fill="#DDDDDD" transform="translate(20,33)"/>
<path d="M0 0 C1.65 0.33 3.3 0.66 5 1 C4.67 2.32 4.34 3.64 4 5 C4 4.01 4 3.02 4 2 C3.34 2 2.68 2 2 2 C2.33 3.32 2.66 4.64 3 6 C0.35261084 7.4606285 -0.89448334 8 -4 8 C-4 8.66 -4 9.32 -4 10 C-5.32 9.34 -6.64 8.68 -8 8 C-7.67 7.01 -7.34 6.02 -7 5 C-6.67 5.66 -6.34 6.32 -6 7 C-5.7525 6.38125 -5.505 5.7625 -5.25 5.125 C-3.79371361 2.64931313 -2.62187494 2.04874998 0 1 C0 0.67 0 0.34 0 0 Z " fill="#C2781A" transform="translate(24,5)"/>
<path d="M0 0 C0 1.65 0 3.3 0 5 C-0.99 5 -1.98 5 -3 5 C-3.33 7.31 -3.66 9.62 -4 12 C-6.64 12 -9.28 12 -12 12 C-12 10.68 -12 9.36 -12 8 C-11.34 8 -10.68 8 -10 8 C-10 8.66 -10 9.32 -10 10 C-8.68 10 -7.36 10 -6 10 C-5.9175 8.906875 -5.835 7.81375 -5.75 6.6875 C-5 3 -5 3 -3 1.0625 C-1 0 -1 0 0 0 Z " fill="#9C291E" transform="translate(32,21)"/>
<path d="M0 0 C2.0625 2.3125 2.0625 2.3125 4 5 C3.67 5.99 3.34 6.98 3 8 C2.01 8 1.02 8 0 8 C-2.15028304 8.94978897 -2.15028304 8.94978897 -4 10 C-4 6.18835834 -3.62734766 4.34510352 -2 1 C-1.34 0.67 -0.68 0.34 0 0 Z " fill="#640F14" transform="translate(8,16)"/>
<path d="M0 0 C0.66 0.66 1.32 1.32 2 2 C2.99 2 3.98 2 5 2 C5 4.97 5 7.94 5 11 C3.68 11 2.36 11 1 11 C-0.17571451 7.32589215 -0.07366746 3.83070817 0 0 Z " fill="#B6B7B7" transform="translate(19,33)"/>
<path d="M0 0 C0.99 0.99 1.98 1.98 3 3 C0 7 0 7 -3 11 C-3.144375 10.236875 -3.28875 9.47375 -3.4375 8.6875 C-3.9632594 5.91827092 -3.9632594 5.91827092 -5 3 C-3.35 2.01 -1.7 1.02 0 0 Z " fill="#540A11" transform="translate(58,44)"/>
<path d="M0 0 C1.98 0 3.96 0 6 0 C6 2.64 6 5.28 6 8 C4.68 7.01 3.36 6.02 2 5 C1.01 5.99 0.02 6.98 -1 8 C-0.67 5.36 -0.34 2.72 0 0 Z " fill="#827F0D" transform="translate(30,27)"/>
<path d="M0 0 C2 1 4 2 6 3 C6 4.98 6 6.96 6 9 C4.02 8.34 2.04 7.68 0 7 C0 4.69 0 2.38 0 0 Z " fill="#A85C1D" transform="translate(20,21)"/>
<path d="M0 0 C0.33 1.32 0.66 2.64 1 4 C-2.96 4 -6.92 4 -11 4 C-8.94006922 -0.11986157 -4.11800376 -1.37266792 0 0 Z " fill="#6D7315" transform="translate(31,15)"/>
<path d="M0 0 C1.65 0.33 3.3 0.66 5 1 C5.33 2.98 5.66 4.96 6 7 C2 7 2 7 -1 6 C-0.67 4.02 -0.34 2.04 0 0 Z " fill="#8E2C19" transform="translate(7,44)"/>
<path d="M0 0 C2.5 1.375 2.5 1.375 5 3 C5 3.66 5 4.32 5 5 C5.99 5.33 6.98 5.66 8 6 C7.67 6.66 7.34 7.32 7 8 C4.125 7.8125 4.125 7.8125 1 7 C-0.4375 4.5625 -0.4375 4.5625 -1 2 C-0.67 1.34 -0.34 0.68 0 0 Z " fill="#C68419" transform="translate(46,9)"/>
<path d="M0 0 C1.93742341 -0.02703381 3.87495479 -0.04641125 5.8125 -0.0625 C6.89144531 -0.07410156 7.97039063 -0.08570313 9.08203125 -0.09765625 C12 0 12 0 15 1 C15 3 15 3 13 5.125 C12.34 5.74375 11.68 6.3625 11 7 C10.34 6.67 9.68 6.34 9 6 C9.33 4.35 9.66 2.7 10 1 C6.7 1 3.4 1 0 1 C0 0.67 0 0.34 0 0 Z " fill="#5B1311" transform="translate(27,3)"/>
<path d="M0 0 C1.32 0 2.64 0 4 0 C4.33 2.64 4.66 5.28 5 8 C4.34 8 3.68 8 3 8 C3 7.34 3 6.68 3 6 C2.34 6 1.68 6 1 6 C1 6.66 1 7.32 1 8 C0.34 7.67 -0.32 7.34 -1 7 C-0.67 4.69 -0.34 2.38 0 0 Z " fill="#E3D814" transform="translate(41,37)"/>
<path d="M0 0 C0.99 1.32 1.98 2.64 3 4 C1 7 1 7 -2.125 7.6875 C-3.07375 7.790625 -4.0225 7.89375 -5 8 C-4.6875 5.625 -4.6875 5.625 -4 3 C-3.01 2.34 -2.02 1.68 -1 1 C-0.67 0.67 -0.34 0.34 0 0 Z " fill="#711616" transform="translate(58,15)"/>
<path d="M0 0 C0.66 0 1.32 0 2 0 C2.33 0.99 2.66 1.98 3 3 C4.03060547 2.96519531 4.03060547 2.96519531 5.08203125 2.9296875 C6.43361328 2.90261719 6.43361328 2.90261719 7.8125 2.875 C8.70582031 2.85179687 9.59914063 2.82859375 10.51953125 2.8046875 C13 3 13 3 16 5 C15.67 5.66 15.34 6.32 15 7 C14.01 6.67 13.02 6.34 12 6 C9.77181559 5.93062938 7.54165476 5.91542916 5.3125 5.9375 C4.13300781 5.94652344 2.95351563 5.95554687 1.73828125 5.96484375 C0.38283203 5.98224609 0.38283203 5.98224609 -1 6 C-0.67 4.02 -0.34 2.04 0 0 Z " fill="#94111B" transform="translate(26,7)"/>
<path d="M0 0 C0.99 0 1.98 0 3 0 C3 1.32 3 2.64 3 4 C4.32 4 5.64 4 7 4 C6.67 4.99 6.34 5.98 6 7 C5.34 7 4.68 7 4 7 C4 7.99 4 8.98 4 10 C3.34 10 2.68 10 2 10 C1.855625 8.906875 1.71125 7.81375 1.5625 6.6875 C1.11711896 3.06877013 1.11711896 3.06877013 0 0 Z " fill="#161616" transform="translate(37,22)"/>
<path d="M0 0 C2.0625 1.75 2.0625 1.75 4 4 C3.75 6.25 3.75 6.25 3 8 C1.0625 7.25 1.0625 7.25 -1 6 C-1.875 4 -1.875 4 -2 2 C-1.34 1.34 -0.68 0.68 0 0 Z " fill="#BE741A" transform="translate(13,45)"/>
<path d="M0 0 C1.61949011 2.57213134 2.04408751 3.67669159 1.625 6.75 C1.41875 7.4925 1.2125 8.235 1 9 C0.01 9 -0.98 9 -2 9 C-1 7 -1 7 0 6 C-1.65 5.67 -3.3 5.34 -5 5 C-4.67 4.34 -4.34 3.68 -4 3 C-2.68 3 -1.36 3 0 3 C0 2.01 0 1.02 0 0 Z " fill="#BD6C1A" transform="translate(10,32)"/>
<path d="M0 0 C2.475 0.99 2.475 0.99 5 2 C4.67 3.32 4.34 4.64 4 6 C2.35 5.67 0.7 5.34 -1 5 C-1 1 -1 1 0 0 Z " fill="#BA691B" transform="translate(40,6)"/>
<path d="M0 0 C1.98 0.66 3.96 1.32 6 2 C6 3.32 6 4.64 6 6 C5.34 6 4.68 6 4 6 C3.67 6.99 3.34 7.98 3 9 C2.71125 8.38125 2.4225 7.7625 2.125 7.125 C1.06279958 4.86674235 1.06279958 4.86674235 -1 3 C-0.67 2.01 -0.34 1.02 0 0 Z " fill="#231A05" transform="translate(31,31)"/>
<path d="M0 0 C2 1 2 1 3 3 C2.01 3.99 1.02 4.98 0 6 C2.31 5.34 4.62 4.68 7 4 C6.34 5.32 5.68 6.64 5 8 C2.03 7.505 2.03 7.505 -1 7 C-1.04254356 5.00045254 -1.04080783 2.99958364 -1 1 C-0.67 0.67 -0.34 0.34 0 0 Z " fill="#C67C1A" transform="translate(53,17)"/>
<path d="M0 0 C0.66 0.33 1.32 0.66 2 1 C2 1.99 2 2.98 2 4 C2.99 4.66 3.98 5.32 5 6 C4.01 6.33 3.02 6.66 2 7 C2.33 7.99 2.66 8.98 3 10 C2.01 9.67 1.02 9.34 0 9 C-1.125 2.25 -1.125 2.25 0 0 Z " fill="#B55E1B" transform="translate(5,24)"/>
<path d="M0 0 C4.87362847 0.45336079 7.39042389 1.7089159 11 5 C10.67 5.66 10.34 6.32 10 7 C8.33073546 6.02526874 6.66464358 5.04510211 5 4.0625 C4.071875 3.51722656 3.14375 2.97195312 2.1875 2.41015625 C1.465625 1.94480469 0.74375 1.47945312 0 1 C0 0.67 0 0.34 0 0 Z " fill="#11532B" transform="translate(37,13)"/>
<path d="M0 0 C2.1385485 2.1385485 2.42655063 3.13275314 3 6 C1.35 5.67 -0.3 5.34 -2 5 C-2 4.34 -2 3.68 -2 3 C-2.66 3 -3.32 3 -4 3 C-4.33 3.66 -4.66 4.32 -5 5 C-4.67 3.68 -4.34 2.36 -4 1 C-2.125 0.375 -2.125 0.375 0 0 Z " fill="#C0741A" transform="translate(35,5)"/>
<path d="M0 0 C0.12375 0.639375 0.2475 1.27875 0.375 1.9375 C0.684375 2.9584375 0.684375 2.9584375 1 4 C1.66 4.33 2.32 4.66 3 5 C-0.3 5 -3.6 5 -7 5 C-6.67 4.01 -6.34 3.02 -6 2 C-3.03 2.495 -3.03 2.495 0 3 C0 2.01 0 1.02 0 0 Z " fill="#9F1A20" transform="translate(35,57)"/>
<path d="M0 0 C2.31 0 4.62 0 7 0 C7 1.32 7 2.64 7 4 C4.69 4 2.38 4 0 4 C0 2.68 0 1.36 0 0 Z " fill="#B6601B" transform="translate(28,56)"/>
<path d="M0 0 C2.64 0.33 5.28 0.66 8 1 C5.44931155 3.35448165 4.28982642 3.98327924 0.75 4.1875 C-0.1575 4.125625 -1.065 4.06375 -2 4 C-1.34 2.68 -0.68 1.36 0 0 Z " fill="#1D9AC8" transform="translate(37,49)"/>
<path d="M0 0 C0.66 1.32 1.32 2.64 2 4 C-3.625 8 -3.625 8 -7 8 C-7 7.34 -7 6.68 -7 6 C-5.68 5.67 -4.36 5.34 -3 5 C-3 4.34 -3 3.68 -3 3 C-2.01 3 -1.02 3 0 3 C0 2.01 0 1.02 0 0 Z " fill="#871019" transform="translate(23,10)"/>
<path d="M0 0 C0.99 0.66 1.98 1.32 3 2 C2.01 2.66 1.02 3.32 0 4 C0 4.99 0 5.98 0 7 C-1.32 6.34 -2.64 5.68 -4 5 C-2.25 1.125 -2.25 1.125 0 0 Z " fill="#CA8E19" transform="translate(54,44)"/>
<path d="M0 0 C4 4.75 4 4.75 4 7 C4.99 7.33 5.98 7.66 7 8 C6.01 8.66 5.02 9.32 4 10 C0 4.5 0 4.5 0 0 Z " fill="#85141A" transform="translate(13,41)"/>
<path d="M0 0 C0.99 0 1.98 0 3 0 C3 2.97 3 5.94 3 9 C2.01 9 1.02 9 0 9 C0 7.02 0 5.04 0 3 C0.66 3 1.32 3 2 3 C2 2.34 2 1.68 2 1 C1.34 0.67 0.68 0.34 0 0 Z " fill="#353535" transform="translate(21,35)"/>
<path d="M0 0 C1 3 1 3 0 6 C-1.32 5.67 -2.64 5.34 -4 5 C-4 4.01 -4 3.02 -4 2 C-2.68 1.34 -1.36 0.68 0 0 Z " fill="#C17B1A" transform="translate(14,15)"/>
<path d="M0 0 C2.475 0.495 2.475 0.495 5 1 C5 2.32 5 3.64 5 5 C2.525 4.01 2.525 4.01 0 3 C0 2.01 0 1.02 0 0 Z " fill="#5A0F11" transform="translate(17,57)"/>
<path d="M0 0 C0.99 0.99 1.98 1.98 3 3 C2.67 3.66 2.34 4.32 2 5 C-0.31 4.67 -2.62 4.34 -5 4 C-3.74458443 1.48916886 -2.49936512 1.12874554 0 0 Z " fill="#761F16" transform="translate(58,44)"/>
<path d="M0 0 C0.99 0.33 1.98 0.66 3 1 C2.67 2.98 2.34 4.96 2 7 C1.01 6.67 0.02 6.34 -1 6 C-1.33 5.01 -1.66 4.02 -2 3 C-1.34 3 -0.68 3 0 3 C0 2.01 0 1.02 0 0 Z " fill="#C78919" transform="translate(57,36)"/>
<path d="M0 0 C5.75 1.75 5.75 1.75 8 4 C5.03 4 2.06 4 -1 4 C-0.67 2.68 -0.34 1.36 0 0 Z " fill="#D7D235" transform="translate(36,14)"/>
<path d="M0 0 C1.98 0.66 3.96 1.32 6 2 C5.01 2.33 4.02 2.66 3 3 C2.26676204 5.01508358 2.26676204 5.01508358 2 7 C0.5393715 4.35261084 0 3.10551666 0 0 Z " fill="#46090E" transform="translate(4,41)"/>
<path d="M0 0 C2.31 0 4.62 0 7 0 C6.67 1.32 6.34 2.64 6 4 C4.35 3.67 2.7 3.34 1 3 C0.67 2.01 0.34 1.02 0 0 Z " fill="#F4F9F9" transform="translate(20,33)"/>
<path d="M0 0 C0.66 0.33 1.32 0.66 2 1 C2 1.99 2 2.98 2 4 C-0.64 4 -3.28 4 -6 4 C-4.03617993 2.49440461 -2.21736634 1.10868317 0 0 Z " fill="#DDD836" transform="translate(28,14)"/>
<path d="M0 0 C0.99 0.66 1.98 1.32 3 2 C1.515 4.475 1.515 4.475 0 7 C-0.99 6.67 -1.98 6.34 -3 6 C-2.67 5.01 -2.34 4.02 -2 3 C-1.34 3 -0.68 3 0 3 C0 2.01 0 1.02 0 0 Z " fill="#8C131A" transform="translate(14,18)"/>
<path d="M0 0 C0 3 0 3 -2 5.1875 C-2.66 5.785625 -3.32 6.38375 -4 7 C-4.66 6.67 -5.32 6.34 -6 6 C-2.25 1.125 -2.25 1.125 0 0 Z " fill="#000000" transform="translate(14,8)"/>
<path d="" fill="#000000" transform="translate(0,0)"/>
<path d="" fill="#000000" transform="translate(0,0)"/>
<path d="" fill="#000000" transform="translate(0,0)"/>
<path d="" fill="#000000" transform="translate(0,0)"/>
<path d="" fill="#000000" transform="translate(0,0)"/>
<path d="" fill="#000000" transform="translate(0,0)"/>
<path d="" fill="#000000" transform="translate(0,0)"/>
<path d="" fill="#000000" transform="translate(0,0)"/>
<path d="" fill="#000000" transform="translate(0,0)"/>
<path d="" fill="#000000" transform="translate(0,0)"/>
</svg>
